<?xml version="1.0" encoding="utf-8"?>
<svg width="606" height="463" viewBox="0 0 606 463" xmlns="http://www.w3.org/2000/svg">
<rect id="frame" x="0" y="0" width="606" height="463" fill="#FFF" stroke="none" stroke-width="0"/>

<!-- Association Uploader -->
<g class="page_0_GKDUP9SQ diagram_page" visibility="visible">
	<line x1="200" y1="252" x2="200" y2="143" stroke="#000" stroke-width="2"/>
	<text x="205" y="185" fill="#000" font-family="Verdana" font-size="12">0,1</text>
	<line x1="200" y1="51" x2="200" y2="143" stroke="#000" stroke-width="2"/>
	<text x="205" y="110" fill="#000" font-family="Verdana" font-size="12">1,1</text>
	<g>
		<path d="M221 118 a14 14 90 0 1 14 14 V143 h-70 V132 a14 14 90 0 1 14 -14" fill="#FFF" stroke="#FFF" stroke-width="0"/>
		<path d="M235 143 v11 a14 14 90 0 1 -14 14 H179 a14 14 90 0 1 -14 -14 V143 H70" fill="#FFF" stroke="#FFF" stroke-width="0"/>
		<rect x="165" y="118" width="70" height="50" fill="none" rx="14" stroke="#000" stroke-width="2"/>
		<line x1="165" y1="143" x2="235" y2="143" stroke="#000" stroke-width="1"/>
		<text x="173" y="135.75" fill="#000" font-family="Verdana" font-size="12">Uploader</text>
	</g>
</g>

<!-- Association Poster -->
<g class="page_0_GKDUP9SQ diagram_page" visibility="visible">
	<line x1="72" y1="395" x2="72" y2="252" stroke="#000" stroke-width="2"/>
	<text x="77" y="345" fill="#000" font-family="Verdana" font-size="12">1,1</text>
	<line x1="200" y1="252" x2="72" y2="252" stroke="#000" stroke-width="2"/>
	<text x="116" y="269" fill="#000" font-family="Verdana" font-size="12">0,n</text>
	<g>
		<path d="M85 227 a14 14 90 0 1 14 14 V252 h-54 V241 a14 14 90 0 1 14 -14" fill="#FFF" stroke="#FFF" stroke-width="0"/>
		<path d="M99 252 v11 a14 14 90 0 1 -14 14 H59 a14 14 90 0 1 -14 -14 V252 H54" fill="#FFF" stroke="#FFF" stroke-width="0"/>
		<rect x="45" y="227" width="54" height="50" fill="none" rx="14" stroke="#000" stroke-width="2"/>
		<line x1="45" y1="252" x2="99" y2="252" stroke="#000" stroke-width="1"/>
		<text x="53" y="244.75" fill="#000" font-family="Verdana" font-size="12">Poster</text>
	</g>
</g>

<!-- Association Publier -->
<g class="page_0_GKDUP9SQ diagram_page" visibility="visible">
	<line x1="328" y1="395" x2="328" y2="252" stroke="#000" stroke-width="2"/>
	<text x="333" y="328" fill="#000" font-family="Verdana" font-size="12">1,1</text>
	<line x1="200" y1="252" x2="328" y2="252" stroke="#000" stroke-width="2"/>
	<text x="263" y="269" fill="#000" font-family="Verdana" font-size="12">0,n</text>
	<g>
		<path d="M342 227 a14 14 90 0 1 14 14 V252 h-56 V241 a14 14 90 0 1 14 -14" fill="#FFF" stroke="#FFF" stroke-width="0"/>
		<path d="M356 252 v11 a14 14 90 0 1 -14 14 H314 a14 14 90 0 1 -14 -14 V252 H56" fill="#FFF" stroke="#FFF" stroke-width="0"/>
		<rect x="300" y="227" width="56" height="50" fill="none" rx="14" stroke="#000" stroke-width="2"/>
		<line x1="300" y1="252" x2="356" y2="252" stroke="#000" stroke-width="1"/>
		<text x="307" y="244.75" fill="#000" font-family="Verdana" font-size="12">Publier</text>
	</g>
</g>

<!-- Association Contenir -->
<g class="page_0_GKDUP9SQ diagram_page" visibility="visible">
	<line x1="72" y1="395" x2="200" y2="395" stroke="#000" stroke-width="2"/>
	<text x="140" y="412" fill="#000" font-family="Verdana" font-size="12">1,1</text>
	<line x1="328" y1="395" x2="200" y2="395" stroke="#000" stroke-width="2"/>
	<text x="239" y="412" fill="#000" font-family="Verdana" font-size="12">0,n</text>
	<g>
		<path d="M219 370 a14 14 90 0 1 14 14 V395 h-66 V384 a14 14 90 0 1 14 -14" fill="#FFF" stroke="#FFF" stroke-width="0"/>
		<path d="M233 395 v11 a14 14 90 0 1 -14 14 H181 a14 14 90 0 1 -14 -14 V395 H66" fill="#FFF" stroke="#FFF" stroke-width="0"/>
		<rect x="167" y="370" width="66" height="50" fill="none" rx="14" stroke="#000" stroke-width="2"/>
		<line x1="167" y1="395" x2="233" y2="395" stroke="#000" stroke-width="1"/>
		<text x="174" y="387.75" fill="#000" font-family="Verdana" font-size="12">Contenir</text>
	</g>
</g>

<!-- Association Posséder -->
<g class="page_0_GKDUP9SQ diagram_page" visibility="visible">
	<line x1="328" y1="395" x2="458" y2="395" stroke="#000" stroke-width="2"/>
	<text x="396" y="412" fill="#000" font-family="Verdana" font-size="12">0,n</text>
	<line x1="561" y1="395" x2="458" y2="395" stroke="#000" stroke-width="2"/>
	<text x="499" y="412" fill="#000" font-family="Verdana" font-size="12">0,n</text>
	<g>
		<path d="M479 370 a14 14 90 0 1 14 14 V395 h-70 V384 a14 14 90 0 1 14 -14" fill="#FFF" stroke="#FFF" stroke-width="0"/>
		<path d="M493 395 v11 a14 14 90 0 1 -14 14 H437 a14 14 90 0 1 -14 -14 V395 H70" fill="#FFF" stroke="#FFF" stroke-width="0"/>
		<rect x="423" y="370" width="70" height="50" fill="none" rx="14" stroke="#000" stroke-width="2"/>
		<line x1="423" y1="395" x2="493" y2="395" stroke="#000" stroke-width="1"/>
		<text x="431" y="387.75" fill="#000" font-family="Verdana" font-size="12">Posséder</text>
	</g>
</g>

<!-- Entity Avatar -->
<g class="page_0_GKDUP9SQ diagram_page" visibility="visible">
	<g>
		<rect x="164" y="9" width="72" height="25" fill="#FFF" stroke="#FFF" stroke-width="0" opacity="1"/>
		<rect x="164" y="34" width="72" height="59" fill="#FFF" stroke="#FFF" stroke-width="0" opacity="1"/>
		<rect x="164" y="9" width="72" height="84" fill="none" stroke="#000" stroke-width="2" opacity="1"/>
		<line x1="164" y1="34" x2="236" y2="34" stroke="#000" stroke-width="1"/>
	</g>
	<text x="180" y="26.75" fill="#000" font-family="Verdana" font-size="12">Avatar</text>
	<text x="169" y="51.8" fill="#000" font-family="Verdana" font-size="12">identifiant</text>
	<line x1="169" y1="54" x2="231" y2="54" stroke="#000" stroke-width="1"/>
	<text x="169" y="68.8" fill="#000" font-family="Verdana" font-size="12">chemin</text>
	<text x="169" y="85.8" fill="#000" font-family="Verdana" font-size="12">valide</text>
</g>

<!-- Entity Utilisateur -->
<g class="page_0_GKDUP9SQ diagram_page" visibility="visible">
	<g>
		<rect x="142" y="193" width="116" height="25" fill="#FFF" stroke="#FFF" stroke-width="0" opacity="1"/>
		<rect x="142" y="218" width="116" height="93" fill="#FFF" stroke="#FFF" stroke-width="0" opacity="1"/>
		<rect x="142" y="193" width="116" height="118" fill="none" stroke="#000" stroke-width="2" opacity="1"/>
		<line x1="142" y1="218" x2="258" y2="218" stroke="#000" stroke-width="1"/>
	</g>
	<text x="169" y="210.75" fill="#000" font-family="Verdana" font-size="12">Utilisateur</text>
	<text x="147" y="235.8" fill="#000" font-family="Verdana" font-size="12">identifiant</text>
	<line x1="147" y1="238" x2="209" y2="238" stroke="#000" stroke-width="1"/>
	<text x="147" y="252.8" fill="#000" font-family="Verdana" font-size="12">email</text>
	<text x="147" y="269.8" fill="#000" font-family="Verdana" font-size="12">mot de passe</text>
	<text x="147" y="286.8" fill="#000" font-family="Verdana" font-size="12">date d’inscription</text>
	<text x="147" y="303.8" fill="#000" font-family="Verdana" font-size="12">rôle</text>
</g>

<!-- Entity Commentaire -->
<g class="page_0_GKDUP9SQ diagram_page" visibility="visible">
	<g>
		<rect x="9" y="353" width="126" height="25" fill="#FFF" stroke="#FFF" stroke-width="0" opacity="1"/>
		<rect x="9" y="378" width="126" height="59" fill="#FFF" stroke="#FFF" stroke-width="0" opacity="1"/>
		<rect x="9" y="353" width="126" height="84" fill="none" stroke="#000" stroke-width="2" opacity="1"/>
		<line x1="9" y1="378" x2="135" y2="378" stroke="#000" stroke-width="1"/>
	</g>
	<text x="31" y="370.75" fill="#000" font-family="Verdana" font-size="12">Commentaire</text>
	<text x="14" y="395.8" fill="#000" font-family="Verdana" font-size="12">identifiant</text>
	<line x1="14" y1="398" x2="76" y2="398" stroke="#000" stroke-width="1"/>
	<text x="14" y="412.8" fill="#000" font-family="Verdana" font-size="12">contenu</text>
	<text x="14" y="429.8" fill="#000" font-family="Verdana" font-size="12">date de publication</text>
</g>

<!-- Entity Article -->
<g class="page_0_GKDUP9SQ diagram_page" visibility="visible">
	<g>
		<rect x="265" y="336" width="126" height="25" fill="#FFF" stroke="#FFF" stroke-width="0" opacity="1"/>
		<rect x="265" y="361" width="126" height="93" fill="#FFF" stroke="#FFF" stroke-width="0" opacity="1"/>
		<rect x="265" y="336" width="126" height="118" fill="none" stroke="#000" stroke-width="2" opacity="1"/>
		<line x1="265" y1="361" x2="391" y2="361" stroke="#000" stroke-width="1"/>
	</g>
	<text x="309" y="353.75" fill="#000" font-family="Verdana" font-size="12">Article</text>
	<text x="270" y="378.8" fill="#000" font-family="Verdana" font-size="12">identifiant</text>
	<line x1="270" y1="381" x2="332" y2="381" stroke="#000" stroke-width="1"/>
	<text x="270" y="395.8" fill="#000" font-family="Verdana" font-size="12">titre</text>
	<text x="270" y="412.8" fill="#000" font-family="Verdana" font-size="12">description</text>
	<text x="270" y="429.8" fill="#000" font-family="Verdana" font-size="12">contenu</text>
	<text x="270" y="446.8" fill="#000" font-family="Verdana" font-size="12">date de publication</text>
</g>

<!-- Entity Catégorie -->
<g class="page_0_GKDUP9SQ diagram_page" visibility="visible">
	<g>
		<rect x="525" y="361" width="72" height="25" fill="#FFF" stroke="#FFF" stroke-width="0" opacity="1"/>
		<rect x="525" y="386" width="72" height="43" fill="#FFF" stroke="#FFF" stroke-width="0" opacity="1"/>
		<rect x="525" y="361" width="72" height="68" fill="none" stroke="#000" stroke-width="2" opacity="1"/>
		<line x1="525" y1="386" x2="597" y2="386" stroke="#000" stroke-width="1"/>
	</g>
	<text x="532" y="378.75" fill="#000" font-family="Verdana" font-size="12">Catégorie</text>
	<text x="530" y="403.8" fill="#000" font-family="Verdana" font-size="12">identifiant</text>
	<line x1="530" y1="406" x2="592" y2="406" stroke="#000" stroke-width="1"/>
	<text x="530" y="420.8" fill="#000" font-family="Verdana" font-size="12">nom</text>
</g>
</svg>